<mxfile host="app.diagrams.net" modified="2020-09-07T10:29:13.772Z" agent="5.0 (Windows NT 10.0; Win64; x64) AppleWebKit/537.36 (KHTML, like Gecko) Chrome/85.0.4183.83 Safari/537.36" etag="lCP0WrDxehVD-Ede5YOp" version="13.6.6" type="github">
  <diagram id="R2lEEEUBdFMjLlhIrx00" name="Page-1">
    <mxGraphModel dx="1278" dy="548" grid="1" gridSize="10" guides="1" tooltips="1" connect="1" arrows="1" fold="1" page="1" pageScale="1" pageWidth="850" pageHeight="1100" math="0" shadow="0" extFonts="Permanent Marker^https://fonts.googleapis.com/css?family=Permanent+Marker">
      <root>
        <mxCell id="0" />
        <mxCell id="1" parent="0" />
        <mxCell id="C-vyLk0tnHw3VtMMgP7b-23" value="Users" style="shape=table;startSize=30;container=1;collapsible=1;childLayout=tableLayout;fixedRows=1;rowLines=0;fontStyle=1;align=center;resizeLast=1;" parent="1" vertex="1">
          <mxGeometry x="20" y="10" width="320" height="270" as="geometry" />
        </mxCell>
        <mxCell id="C-vyLk0tnHw3VtMMgP7b-24" value="" style="shape=partialRectangle;collapsible=0;dropTarget=0;pointerEvents=0;fillColor=none;points=[[0,0.5],[1,0.5]];portConstraint=eastwest;top=0;left=0;right=0;bottom=1;" parent="C-vyLk0tnHw3VtMMgP7b-23" vertex="1">
          <mxGeometry y="30" width="320" height="30" as="geometry" />
        </mxCell>
        <mxCell id="C-vyLk0tnHw3VtMMgP7b-25" value="PK" style="shape=partialRectangle;overflow=hidden;connectable=0;fillColor=none;top=0;left=0;bottom=0;right=0;fontStyle=1;" parent="C-vyLk0tnHw3VtMMgP7b-24" vertex="1">
          <mxGeometry width="30.000000000000227" height="30" as="geometry" />
        </mxCell>
        <mxCell id="C-vyLk0tnHw3VtMMgP7b-26" value="userId uuid NOT NULL" style="shape=partialRectangle;overflow=hidden;connectable=0;fillColor=none;top=0;left=0;bottom=0;right=0;align=left;spacingLeft=6;fontStyle=5;" parent="C-vyLk0tnHw3VtMMgP7b-24" vertex="1">
          <mxGeometry x="30.000000000000227" width="289.9999999999998" height="30" as="geometry" />
        </mxCell>
        <mxCell id="C-vyLk0tnHw3VtMMgP7b-27" value="" style="shape=partialRectangle;collapsible=0;dropTarget=0;pointerEvents=0;fillColor=none;points=[[0,0.5],[1,0.5]];portConstraint=eastwest;top=0;left=0;right=0;bottom=0;" parent="C-vyLk0tnHw3VtMMgP7b-23" vertex="1">
          <mxGeometry y="60" width="320" height="30" as="geometry" />
        </mxCell>
        <mxCell id="C-vyLk0tnHw3VtMMgP7b-28" value="" style="shape=partialRectangle;overflow=hidden;connectable=0;fillColor=none;top=0;left=0;bottom=0;right=0;" parent="C-vyLk0tnHw3VtMMgP7b-27" vertex="1">
          <mxGeometry width="30.000000000000227" height="30" as="geometry" />
        </mxCell>
        <mxCell id="C-vyLk0tnHw3VtMMgP7b-29" value="firstName VARCHAR NOT NULL" style="shape=partialRectangle;overflow=hidden;connectable=0;fillColor=none;top=0;left=0;bottom=0;right=0;align=left;spacingLeft=6;" parent="C-vyLk0tnHw3VtMMgP7b-27" vertex="1">
          <mxGeometry x="30.000000000000227" width="289.9999999999998" height="30" as="geometry" />
        </mxCell>
        <mxCell id="B6y-D5gSoSHr-RNbPVT_-36" value="email VARCHAR NOT NULL" style="shape=partialRectangle;overflow=hidden;connectable=0;fillColor=none;top=0;left=0;bottom=0;right=0;align=left;spacingLeft=6;" vertex="1" parent="1">
          <mxGeometry x="50.00000000000023" y="110" width="220" height="30" as="geometry" />
        </mxCell>
        <mxCell id="B6y-D5gSoSHr-RNbPVT_-37" value="hashedPassword VARCHAR NOT NULL" style="shape=partialRectangle;overflow=hidden;connectable=0;fillColor=none;top=0;left=0;bottom=0;right=0;align=left;spacingLeft=6;" vertex="1" parent="1">
          <mxGeometry x="50" y="130" width="270" height="30" as="geometry" />
        </mxCell>
        <mxCell id="B6y-D5gSoSHr-RNbPVT_-39" value="" style="shape=partialRectangle;collapsible=0;dropTarget=0;pointerEvents=0;fillColor=none;points=[[0,0.5],[1,0.5]];portConstraint=eastwest;top=0;left=0;right=0;bottom=0;" vertex="1" parent="1">
          <mxGeometry x="20" y="90" width="250.00000000000023" height="30" as="geometry" />
        </mxCell>
        <mxCell id="B6y-D5gSoSHr-RNbPVT_-40" value="" style="shape=partialRectangle;overflow=hidden;connectable=0;fillColor=none;top=0;left=0;bottom=0;right=0;" vertex="1" parent="B6y-D5gSoSHr-RNbPVT_-39">
          <mxGeometry width="30.000000000000227" height="30" as="geometry" />
        </mxCell>
        <mxCell id="B6y-D5gSoSHr-RNbPVT_-41" value="lastName VARCHAR NOT NULL" style="shape=partialRectangle;overflow=hidden;connectable=0;fillColor=none;top=0;left=0;bottom=0;right=0;align=left;spacingLeft=6;" vertex="1" parent="B6y-D5gSoSHr-RNbPVT_-39">
          <mxGeometry x="30.000000000000227" width="220" height="30" as="geometry" />
        </mxCell>
        <mxCell id="B6y-D5gSoSHr-RNbPVT_-42" value="profilePhoto ???" style="shape=partialRectangle;overflow=hidden;connectable=0;fillColor=none;top=0;left=0;bottom=0;right=0;align=left;spacingLeft=6;" vertex="1" parent="1">
          <mxGeometry x="50" y="150" width="290" height="30" as="geometry" />
        </mxCell>
        <mxCell id="B6y-D5gSoSHr-RNbPVT_-71" value="" style="shape=partialRectangle;overflow=hidden;connectable=0;fillColor=none;top=0;left=0;bottom=0;right=0;align=left;spacingLeft=6;" vertex="1" parent="1">
          <mxGeometry x="420.0000000000002" y="90" width="289.9999999999998" height="30" as="geometry" />
        </mxCell>
        <mxCell id="B6y-D5gSoSHr-RNbPVT_-77" value="projectDescription VARCHAR NOT NULL" style="shape=partialRectangle;overflow=hidden;connectable=0;fillColor=none;top=0;left=0;bottom=0;right=0;align=left;spacingLeft=6;" vertex="1" parent="1">
          <mxGeometry x="800.0000000000002" y="90" width="289.9999999999998" height="30" as="geometry" />
        </mxCell>
        <mxCell id="B6y-D5gSoSHr-RNbPVT_-79" value="isPrivate BOOLEAN NOT NULL" style="shape=partialRectangle;overflow=hidden;connectable=0;fillColor=none;top=0;left=0;bottom=0;right=0;align=left;spacingLeft=6;" vertex="1" parent="1">
          <mxGeometry x="800.0000000000002" y="110" width="289.9999999999998" height="30" as="geometry" />
        </mxCell>
        <mxCell id="B6y-D5gSoSHr-RNbPVT_-88" value="" style="shape=partialRectangle;collapsible=0;dropTarget=0;pointerEvents=0;fillColor=none;points=[[0,0.5],[1,0.5]];portConstraint=eastwest;top=0;left=0;right=0;bottom=0;" vertex="1" parent="1">
          <mxGeometry x="400" y="120" width="280" height="30" as="geometry" />
        </mxCell>
        <mxCell id="B6y-D5gSoSHr-RNbPVT_-89" value="FK" style="shape=partialRectangle;overflow=hidden;connectable=0;fillColor=none;top=0;left=0;bottom=0;right=0;" vertex="1" parent="B6y-D5gSoSHr-RNbPVT_-88">
          <mxGeometry width="30" height="30" as="geometry" />
        </mxCell>
        <mxCell id="B6y-D5gSoSHr-RNbPVT_-90" value="projectId uuid NOT NULL" style="shape=partialRectangle;overflow=hidden;connectable=0;fillColor=none;top=0;left=0;bottom=0;right=0;align=left;spacingLeft=6;" vertex="1" parent="B6y-D5gSoSHr-RNbPVT_-88">
          <mxGeometry x="30" width="250" height="30" as="geometry" />
        </mxCell>
        <mxCell id="B6y-D5gSoSHr-RNbPVT_-93" value="" style="edgeStyle=entityRelationEdgeStyle;fontSize=12;html=1;endArrow=ERmany;exitX=1;exitY=0.5;exitDx=0;exitDy=0;entryX=0;entryY=0.5;entryDx=0;entryDy=0;" edge="1" parent="1" source="C-vyLk0tnHw3VtMMgP7b-24" target="B6y-D5gSoSHr-RNbPVT_-61">
          <mxGeometry width="100" height="100" relative="1" as="geometry">
            <mxPoint x="490" y="250" as="sourcePoint" />
            <mxPoint x="590" y="150" as="targetPoint" />
          </mxGeometry>
        </mxCell>
        <mxCell id="B6y-D5gSoSHr-RNbPVT_-98" value="" style="edgeStyle=entityRelationEdgeStyle;fontSize=12;html=1;endArrow=ERmany;exitX=1;exitY=0.5;exitDx=0;exitDy=0;" edge="1" parent="1" source="B6y-D5gSoSHr-RNbPVT_-44" target="B6y-D5gSoSHr-RNbPVT_-54">
          <mxGeometry width="100" height="100" relative="1" as="geometry">
            <mxPoint x="560" y="470" as="sourcePoint" />
            <mxPoint x="660" y="370" as="targetPoint" />
          </mxGeometry>
        </mxCell>
        <mxCell id="B6y-D5gSoSHr-RNbPVT_-101" value="" style="edgeStyle=entityRelationEdgeStyle;fontSize=12;html=1;endArrow=ERmany;" edge="1" parent="1" source="B6y-D5gSoSHr-RNbPVT_-44" target="B6y-D5gSoSHr-RNbPVT_-88">
          <mxGeometry width="100" height="100" relative="1" as="geometry">
            <mxPoint x="730" y="60" as="sourcePoint" />
            <mxPoint x="680" y="135" as="targetPoint" />
          </mxGeometry>
        </mxCell>
        <mxCell id="B6y-D5gSoSHr-RNbPVT_-43" value="Projects" style="shape=table;startSize=30;container=1;collapsible=1;childLayout=tableLayout;fixedRows=1;rowLines=0;fontStyle=1;align=center;resizeLast=1;" vertex="1" parent="1">
          <mxGeometry x="770" y="10" width="320" height="270" as="geometry" />
        </mxCell>
        <mxCell id="B6y-D5gSoSHr-RNbPVT_-44" value="" style="shape=partialRectangle;collapsible=0;dropTarget=0;pointerEvents=0;fillColor=none;points=[[0,0.5],[1,0.5]];portConstraint=eastwest;top=0;left=0;right=0;bottom=1;" vertex="1" parent="B6y-D5gSoSHr-RNbPVT_-43">
          <mxGeometry y="30" width="320" height="30" as="geometry" />
        </mxCell>
        <mxCell id="B6y-D5gSoSHr-RNbPVT_-45" value="PK" style="shape=partialRectangle;overflow=hidden;connectable=0;fillColor=none;top=0;left=0;bottom=0;right=0;fontStyle=1;" vertex="1" parent="B6y-D5gSoSHr-RNbPVT_-44">
          <mxGeometry width="30.000000000000227" height="30" as="geometry" />
        </mxCell>
        <mxCell id="B6y-D5gSoSHr-RNbPVT_-46" value="projectId uuid NOT NULL" style="shape=partialRectangle;overflow=hidden;connectable=0;fillColor=none;top=0;left=0;bottom=0;right=0;align=left;spacingLeft=6;fontStyle=5;" vertex="1" parent="B6y-D5gSoSHr-RNbPVT_-44">
          <mxGeometry x="30.000000000000227" width="289.9999999999998" height="30" as="geometry" />
        </mxCell>
        <mxCell id="B6y-D5gSoSHr-RNbPVT_-47" value="" style="shape=partialRectangle;collapsible=0;dropTarget=0;pointerEvents=0;fillColor=none;points=[[0,0.5],[1,0.5]];portConstraint=eastwest;top=0;left=0;right=0;bottom=0;" vertex="1" parent="B6y-D5gSoSHr-RNbPVT_-43">
          <mxGeometry y="60" width="320" height="30" as="geometry" />
        </mxCell>
        <mxCell id="B6y-D5gSoSHr-RNbPVT_-48" value="" style="shape=partialRectangle;overflow=hidden;connectable=0;fillColor=none;top=0;left=0;bottom=0;right=0;" vertex="1" parent="B6y-D5gSoSHr-RNbPVT_-47">
          <mxGeometry width="30.000000000000227" height="30" as="geometry" />
        </mxCell>
        <mxCell id="B6y-D5gSoSHr-RNbPVT_-49" value="projectName VARCHAR NOT NULL" style="shape=partialRectangle;overflow=hidden;connectable=0;fillColor=none;top=0;left=0;bottom=0;right=0;align=left;spacingLeft=6;" vertex="1" parent="B6y-D5gSoSHr-RNbPVT_-47">
          <mxGeometry x="30.000000000000227" width="289.9999999999998" height="30" as="geometry" />
        </mxCell>
        <mxCell id="B6y-D5gSoSHr-RNbPVT_-50" value="Columns" style="shape=table;startSize=30;container=1;collapsible=1;childLayout=tableLayout;fixedRows=1;rowLines=0;fontStyle=1;align=center;resizeLast=1;" vertex="1" parent="1">
          <mxGeometry x="770" y="320" width="320" height="270" as="geometry" />
        </mxCell>
        <mxCell id="B6y-D5gSoSHr-RNbPVT_-51" value="" style="shape=partialRectangle;collapsible=0;dropTarget=0;pointerEvents=0;fillColor=none;points=[[0,0.5],[1,0.5]];portConstraint=eastwest;top=0;left=0;right=0;bottom=1;" vertex="1" parent="B6y-D5gSoSHr-RNbPVT_-50">
          <mxGeometry y="30" width="320" height="30" as="geometry" />
        </mxCell>
        <mxCell id="B6y-D5gSoSHr-RNbPVT_-52" value="PK" style="shape=partialRectangle;overflow=hidden;connectable=0;fillColor=none;top=0;left=0;bottom=0;right=0;fontStyle=1;" vertex="1" parent="B6y-D5gSoSHr-RNbPVT_-51">
          <mxGeometry width="30.000000000000227" height="30" as="geometry" />
        </mxCell>
        <mxCell id="B6y-D5gSoSHr-RNbPVT_-53" value="columnId uuid NOT NULL" style="shape=partialRectangle;overflow=hidden;connectable=0;fillColor=none;top=0;left=0;bottom=0;right=0;align=left;spacingLeft=6;fontStyle=5;" vertex="1" parent="B6y-D5gSoSHr-RNbPVT_-51">
          <mxGeometry x="30.000000000000227" width="289.9999999999998" height="30" as="geometry" />
        </mxCell>
        <mxCell id="B6y-D5gSoSHr-RNbPVT_-54" value="" style="shape=partialRectangle;collapsible=0;dropTarget=0;pointerEvents=0;fillColor=none;points=[[0,0.5],[1,0.5]];portConstraint=eastwest;top=0;left=0;right=0;bottom=0;" vertex="1" parent="B6y-D5gSoSHr-RNbPVT_-50">
          <mxGeometry y="60" width="320" height="30" as="geometry" />
        </mxCell>
        <mxCell id="B6y-D5gSoSHr-RNbPVT_-55" value="FK" style="shape=partialRectangle;overflow=hidden;connectable=0;fillColor=none;top=0;left=0;bottom=0;right=0;" vertex="1" parent="B6y-D5gSoSHr-RNbPVT_-54">
          <mxGeometry width="30.000000000000227" height="30" as="geometry" />
        </mxCell>
        <mxCell id="B6y-D5gSoSHr-RNbPVT_-56" value="projectId uuid NOT NULL" style="shape=partialRectangle;overflow=hidden;connectable=0;fillColor=none;top=0;left=0;bottom=0;right=0;align=left;spacingLeft=6;" vertex="1" parent="B6y-D5gSoSHr-RNbPVT_-54">
          <mxGeometry x="30.000000000000227" width="289.9999999999998" height="30" as="geometry" />
        </mxCell>
        <mxCell id="B6y-D5gSoSHr-RNbPVT_-103" value="" style="shape=partialRectangle;collapsible=0;dropTarget=0;pointerEvents=0;fillColor=none;points=[[0,0.5],[1,0.5]];portConstraint=eastwest;top=0;left=0;right=0;bottom=0;" vertex="1" parent="1">
          <mxGeometry x="770" y="400" width="320" height="30" as="geometry" />
        </mxCell>
        <mxCell id="B6y-D5gSoSHr-RNbPVT_-104" value="" style="shape=partialRectangle;overflow=hidden;connectable=0;fillColor=none;top=0;left=0;bottom=0;right=0;" vertex="1" parent="B6y-D5gSoSHr-RNbPVT_-103">
          <mxGeometry width="30.000000000000227" height="30" as="geometry" />
        </mxCell>
        <mxCell id="B6y-D5gSoSHr-RNbPVT_-105" value="columnName VARCHAR NOT NULL" style="shape=partialRectangle;overflow=hidden;connectable=0;fillColor=none;top=0;left=0;bottom=0;right=0;align=left;spacingLeft=6;" vertex="1" parent="B6y-D5gSoSHr-RNbPVT_-103">
          <mxGeometry x="30.000000000000227" width="289.9999999999998" height="30" as="geometry" />
        </mxCell>
        <mxCell id="B6y-D5gSoSHr-RNbPVT_-106" value="" style="shape=partialRectangle;collapsible=0;dropTarget=0;pointerEvents=0;fillColor=none;points=[[0,0.5],[1,0.5]];portConstraint=eastwest;top=0;left=0;right=0;bottom=0;" vertex="1" parent="1">
          <mxGeometry x="770" y="420" width="320" height="30" as="geometry" />
        </mxCell>
        <mxCell id="B6y-D5gSoSHr-RNbPVT_-107" value="FK" style="shape=partialRectangle;overflow=hidden;connectable=0;fillColor=none;top=0;left=0;bottom=0;right=0;" vertex="1" parent="B6y-D5gSoSHr-RNbPVT_-106">
          <mxGeometry width="30.000000000000227" height="30" as="geometry" />
        </mxCell>
        <mxCell id="B6y-D5gSoSHr-RNbPVT_-108" value="nextColumn uuid " style="shape=partialRectangle;overflow=hidden;connectable=0;fillColor=none;top=0;left=0;bottom=0;right=0;align=left;spacingLeft=6;" vertex="1" parent="B6y-D5gSoSHr-RNbPVT_-106">
          <mxGeometry x="30.000000000000227" y="-2" width="289.9999999999998" height="30" as="geometry" />
        </mxCell>
        <mxCell id="B6y-D5gSoSHr-RNbPVT_-57" value="User-Project" style="shape=table;startSize=30;container=1;collapsible=1;childLayout=tableLayout;fixedRows=1;rowLines=0;fontStyle=1;align=center;resizeLast=1;" vertex="1" parent="1">
          <mxGeometry x="400" y="35" width="280" height="180" as="geometry" />
        </mxCell>
        <mxCell id="B6y-D5gSoSHr-RNbPVT_-58" value="" style="shape=partialRectangle;collapsible=0;dropTarget=0;pointerEvents=0;fillColor=none;points=[[0,0.5],[1,0.5]];portConstraint=eastwest;top=0;left=0;right=0;bottom=1;" vertex="1" parent="B6y-D5gSoSHr-RNbPVT_-57">
          <mxGeometry y="30" width="280" height="30" as="geometry" />
        </mxCell>
        <mxCell id="B6y-D5gSoSHr-RNbPVT_-59" value="PK" style="shape=partialRectangle;overflow=hidden;connectable=0;fillColor=none;top=0;left=0;bottom=0;right=0;fontStyle=1;" vertex="1" parent="B6y-D5gSoSHr-RNbPVT_-58">
          <mxGeometry width="30" height="30" as="geometry" />
        </mxCell>
        <mxCell id="B6y-D5gSoSHr-RNbPVT_-60" value="userProjectId uuid NOT NULL" style="shape=partialRectangle;overflow=hidden;connectable=0;fillColor=none;top=0;left=0;bottom=0;right=0;align=left;spacingLeft=6;fontStyle=5;" vertex="1" parent="B6y-D5gSoSHr-RNbPVT_-58">
          <mxGeometry x="30" width="250" height="30" as="geometry" />
        </mxCell>
        <mxCell id="B6y-D5gSoSHr-RNbPVT_-61" value="" style="shape=partialRectangle;collapsible=0;dropTarget=0;pointerEvents=0;fillColor=none;points=[[0,0.5],[1,0.5]];portConstraint=eastwest;top=0;left=0;right=0;bottom=0;" vertex="1" parent="B6y-D5gSoSHr-RNbPVT_-57">
          <mxGeometry y="60" width="280" height="30" as="geometry" />
        </mxCell>
        <mxCell id="B6y-D5gSoSHr-RNbPVT_-62" value="FK" style="shape=partialRectangle;overflow=hidden;connectable=0;fillColor=none;top=0;left=0;bottom=0;right=0;" vertex="1" parent="B6y-D5gSoSHr-RNbPVT_-61">
          <mxGeometry width="30" height="30" as="geometry" />
        </mxCell>
        <mxCell id="B6y-D5gSoSHr-RNbPVT_-63" value="userId uuid NOT NULL" style="shape=partialRectangle;overflow=hidden;connectable=0;fillColor=none;top=0;left=0;bottom=0;right=0;align=left;spacingLeft=6;" vertex="1" parent="B6y-D5gSoSHr-RNbPVT_-61">
          <mxGeometry x="30" width="250" height="30" as="geometry" />
        </mxCell>
        <mxCell id="B6y-D5gSoSHr-RNbPVT_-111" value="" style="edgeStyle=entityRelationEdgeStyle;fontSize=12;html=1;endArrow=ERzeroToMany;endFill=1;exitX=0;exitY=0.5;exitDx=0;exitDy=0;entryX=1;entryY=0.5;entryDx=0;entryDy=0;" edge="1" parent="1" source="B6y-D5gSoSHr-RNbPVT_-51" target="B6y-D5gSoSHr-RNbPVT_-85">
          <mxGeometry width="100" height="100" relative="1" as="geometry">
            <mxPoint x="600" y="500" as="sourcePoint" />
            <mxPoint x="700" y="400" as="targetPoint" />
          </mxGeometry>
        </mxCell>
        <mxCell id="B6y-D5gSoSHr-RNbPVT_-81" value="Tickets" style="shape=table;startSize=30;container=1;collapsible=1;childLayout=tableLayout;fixedRows=1;rowLines=0;fontStyle=1;align=center;resizeLast=1;" vertex="1" parent="1">
          <mxGeometry x="425" y="320" width="290" height="240" as="geometry" />
        </mxCell>
        <mxCell id="B6y-D5gSoSHr-RNbPVT_-82" value="" style="shape=partialRectangle;collapsible=0;dropTarget=0;pointerEvents=0;fillColor=none;points=[[0,0.5],[1,0.5]];portConstraint=eastwest;top=0;left=0;right=0;bottom=1;" vertex="1" parent="B6y-D5gSoSHr-RNbPVT_-81">
          <mxGeometry y="30" width="290" height="30" as="geometry" />
        </mxCell>
        <mxCell id="B6y-D5gSoSHr-RNbPVT_-83" value="PK" style="shape=partialRectangle;overflow=hidden;connectable=0;fillColor=none;top=0;left=0;bottom=0;right=0;fontStyle=1;" vertex="1" parent="B6y-D5gSoSHr-RNbPVT_-82">
          <mxGeometry width="30.000000000000227" height="30" as="geometry" />
        </mxCell>
        <mxCell id="B6y-D5gSoSHr-RNbPVT_-84" value="ticketId uuid NOT NULL" style="shape=partialRectangle;overflow=hidden;connectable=0;fillColor=none;top=0;left=0;bottom=0;right=0;align=left;spacingLeft=6;fontStyle=5;" vertex="1" parent="B6y-D5gSoSHr-RNbPVT_-82">
          <mxGeometry x="30.000000000000227" width="259.9999999999998" height="30" as="geometry" />
        </mxCell>
        <mxCell id="B6y-D5gSoSHr-RNbPVT_-85" value="" style="shape=partialRectangle;collapsible=0;dropTarget=0;pointerEvents=0;fillColor=none;points=[[0,0.5],[1,0.5]];portConstraint=eastwest;top=0;left=0;right=0;bottom=0;" vertex="1" parent="B6y-D5gSoSHr-RNbPVT_-81">
          <mxGeometry y="60" width="290" height="30" as="geometry" />
        </mxCell>
        <mxCell id="B6y-D5gSoSHr-RNbPVT_-86" value="FK" style="shape=partialRectangle;overflow=hidden;connectable=0;fillColor=none;top=0;left=0;bottom=0;right=0;" vertex="1" parent="B6y-D5gSoSHr-RNbPVT_-85">
          <mxGeometry width="30.000000000000227" height="30" as="geometry" />
        </mxCell>
        <mxCell id="B6y-D5gSoSHr-RNbPVT_-87" value="columnId uuid NOT NULL" style="shape=partialRectangle;overflow=hidden;connectable=0;fillColor=none;top=0;left=0;bottom=0;right=0;align=left;spacingLeft=6;" vertex="1" parent="B6y-D5gSoSHr-RNbPVT_-85">
          <mxGeometry x="30.000000000000227" width="259.9999999999998" height="30" as="geometry" />
        </mxCell>
        <mxCell id="B6y-D5gSoSHr-RNbPVT_-128" value="Labels" style="shape=table;startSize=30;container=1;collapsible=1;childLayout=tableLayout;fixedRows=1;rowLines=0;fontStyle=1;align=center;resizeLast=1;" vertex="1" parent="1">
          <mxGeometry x="50" y="320" width="290" height="240" as="geometry" />
        </mxCell>
        <mxCell id="B6y-D5gSoSHr-RNbPVT_-129" value="" style="shape=partialRectangle;collapsible=0;dropTarget=0;pointerEvents=0;fillColor=none;points=[[0,0.5],[1,0.5]];portConstraint=eastwest;top=0;left=0;right=0;bottom=1;" vertex="1" parent="B6y-D5gSoSHr-RNbPVT_-128">
          <mxGeometry y="30" width="290" height="30" as="geometry" />
        </mxCell>
        <mxCell id="B6y-D5gSoSHr-RNbPVT_-130" value="PK" style="shape=partialRectangle;overflow=hidden;connectable=0;fillColor=none;top=0;left=0;bottom=0;right=0;fontStyle=1;" vertex="1" parent="B6y-D5gSoSHr-RNbPVT_-129">
          <mxGeometry width="30.000000000000227" height="30" as="geometry" />
        </mxCell>
        <mxCell id="B6y-D5gSoSHr-RNbPVT_-131" value="labelId uuid NOT NULL" style="shape=partialRectangle;overflow=hidden;connectable=0;fillColor=none;top=0;left=0;bottom=0;right=0;align=left;spacingLeft=6;fontStyle=5;" vertex="1" parent="B6y-D5gSoSHr-RNbPVT_-129">
          <mxGeometry x="30.000000000000227" width="259.9999999999998" height="30" as="geometry" />
        </mxCell>
        <mxCell id="B6y-D5gSoSHr-RNbPVT_-132" value="" style="shape=partialRectangle;collapsible=0;dropTarget=0;pointerEvents=0;fillColor=none;points=[[0,0.5],[1,0.5]];portConstraint=eastwest;top=0;left=0;right=0;bottom=0;" vertex="1" parent="B6y-D5gSoSHr-RNbPVT_-128">
          <mxGeometry y="60" width="290" height="30" as="geometry" />
        </mxCell>
        <mxCell id="B6y-D5gSoSHr-RNbPVT_-133" value="" style="shape=partialRectangle;overflow=hidden;connectable=0;fillColor=none;top=0;left=0;bottom=0;right=0;" vertex="1" parent="B6y-D5gSoSHr-RNbPVT_-132">
          <mxGeometry width="30.000000000000227" height="30" as="geometry" />
        </mxCell>
        <mxCell id="B6y-D5gSoSHr-RNbPVT_-134" value="labelName VARCHAR NOT NULL" style="shape=partialRectangle;overflow=hidden;connectable=0;fillColor=none;top=0;left=0;bottom=0;right=0;align=left;spacingLeft=6;" vertex="1" parent="B6y-D5gSoSHr-RNbPVT_-132">
          <mxGeometry x="30.000000000000227" width="259.9999999999998" height="30" as="geometry" />
        </mxCell>
        <mxCell id="B6y-D5gSoSHr-RNbPVT_-136" value="" style="shape=partialRectangle;collapsible=0;dropTarget=0;pointerEvents=0;fillColor=none;points=[[0,0.5],[1,0.5]];portConstraint=eastwest;top=0;left=0;right=0;bottom=0;" vertex="1" parent="1">
          <mxGeometry x="50" y="400" width="290" height="30" as="geometry" />
        </mxCell>
        <mxCell id="B6y-D5gSoSHr-RNbPVT_-137" value="" style="shape=partialRectangle;overflow=hidden;connectable=0;fillColor=none;top=0;left=0;bottom=0;right=0;" vertex="1" parent="B6y-D5gSoSHr-RNbPVT_-136">
          <mxGeometry width="30.000000000000227" height="30" as="geometry" />
        </mxCell>
        <mxCell id="B6y-D5gSoSHr-RNbPVT_-138" value="labelColour VARCHAR NOT NULL" style="shape=partialRectangle;overflow=hidden;connectable=0;fillColor=none;top=0;left=0;bottom=0;right=0;align=left;spacingLeft=6;" vertex="1" parent="B6y-D5gSoSHr-RNbPVT_-136">
          <mxGeometry x="30.000000000000227" width="259.9999999999998" height="30" as="geometry" />
        </mxCell>
        <mxCell id="B6y-D5gSoSHr-RNbPVT_-139" value="ticketTitle VARCHAR NOT NULL" style="shape=partialRectangle;overflow=hidden;connectable=0;fillColor=none;top=0;left=0;bottom=0;right=0;align=left;spacingLeft=6;" vertex="1" parent="1">
          <mxGeometry x="455.0000000000002" y="400" width="259.9999999999998" height="30" as="geometry" />
        </mxCell>
        <mxCell id="B6y-D5gSoSHr-RNbPVT_-140" value="ticketDescription VARCHAR" style="shape=partialRectangle;overflow=hidden;connectable=0;fillColor=none;top=0;left=0;bottom=0;right=0;align=left;spacingLeft=6;" vertex="1" parent="1">
          <mxGeometry x="455.0000000000002" y="420" width="259.9999999999998" height="30" as="geometry" />
        </mxCell>
        <mxCell id="B6y-D5gSoSHr-RNbPVT_-141" value="notifyeeIds ARRAY" style="shape=partialRectangle;overflow=hidden;connectable=0;fillColor=none;top=0;left=0;bottom=0;right=0;align=left;spacingLeft=6;" vertex="1" parent="1">
          <mxGeometry x="455.0000000000002" y="440" width="259.9999999999998" height="30" as="geometry" />
        </mxCell>
        <mxCell id="B6y-D5gSoSHr-RNbPVT_-142" value="FK" style="shape=partialRectangle;overflow=hidden;connectable=0;fillColor=none;top=0;left=0;bottom=0;right=0;" vertex="1" parent="1">
          <mxGeometry x="50" y="725" width="30.000000000000227" height="30" as="geometry" />
        </mxCell>
        <mxCell id="B6y-D5gSoSHr-RNbPVT_-143" value="labelId uuid NOT NULL" style="shape=partialRectangle;overflow=hidden;connectable=0;fillColor=none;top=0;left=0;bottom=0;right=0;align=left;spacingLeft=6;" vertex="1" parent="1">
          <mxGeometry x="80.00000000000023" y="725" width="259.9999999999998" height="30" as="geometry" />
        </mxCell>
        <mxCell id="B6y-D5gSoSHr-RNbPVT_-144" value="" style="edgeStyle=entityRelationEdgeStyle;fontSize=12;html=1;endArrow=ERoneToMany;entryX=0;entryY=0.5;entryDx=0;entryDy=0;exitX=1;exitY=0.5;exitDx=0;exitDy=0;" edge="1" parent="1" source="B6y-D5gSoSHr-RNbPVT_-112" target="B6y-D5gSoSHr-RNbPVT_-129">
          <mxGeometry width="100" height="100" relative="1" as="geometry">
            <mxPoint x="530" y="730" as="sourcePoint" />
            <mxPoint x="640" y="560" as="targetPoint" />
          </mxGeometry>
        </mxCell>
        <mxCell id="B6y-D5gSoSHr-RNbPVT_-145" value="" style="edgeStyle=entityRelationEdgeStyle;fontSize=12;html=1;endArrow=ERoneToMany;exitX=1;exitY=0.5;exitDx=0;exitDy=0;entryX=0;entryY=0.5;entryDx=0;entryDy=0;" edge="1" parent="1" source="B6y-D5gSoSHr-RNbPVT_-116" target="B6y-D5gSoSHr-RNbPVT_-82">
          <mxGeometry width="100" height="100" relative="1" as="geometry">
            <mxPoint x="540" y="660" as="sourcePoint" />
            <mxPoint x="420" y="360" as="targetPoint" />
          </mxGeometry>
        </mxCell>
        <mxCell id="B6y-D5gSoSHr-RNbPVT_-146" value="userId uuid NOT NULL" style="shape=partialRectangle;overflow=hidden;connectable=0;fillColor=none;top=0;left=0;bottom=0;right=0;align=left;spacingLeft=6;" vertex="1" parent="1">
          <mxGeometry x="455.0000000000002" y="460" width="259.9999999999998" height="30" as="geometry" />
        </mxCell>
        <mxCell id="B6y-D5gSoSHr-RNbPVT_-147" value="FK" style="shape=partialRectangle;overflow=hidden;connectable=0;fillColor=none;top=0;left=0;bottom=0;right=0;" vertex="1" parent="1">
          <mxGeometry x="425" y="460" width="30.000000000000227" height="30" as="geometry" />
        </mxCell>
        <mxCell id="B6y-D5gSoSHr-RNbPVT_-148" value="userId uuid NOT NULL" style="shape=partialRectangle;overflow=hidden;connectable=0;fillColor=none;top=0;left=0;bottom=0;right=0;align=left;spacingLeft=6;" vertex="1" parent="1">
          <mxGeometry x="800.0000000000002" y="130" width="259.9999999999998" height="30" as="geometry" />
        </mxCell>
        <mxCell id="B6y-D5gSoSHr-RNbPVT_-149" value="FK" style="shape=partialRectangle;overflow=hidden;connectable=0;fillColor=none;top=0;left=0;bottom=0;right=0;" vertex="1" parent="1">
          <mxGeometry x="770" y="130" width="30.000000000000227" height="30" as="geometry" />
        </mxCell>
        <mxCell id="B6y-D5gSoSHr-RNbPVT_-150" value="role INT NOT NULL" style="shape=partialRectangle;overflow=hidden;connectable=0;fillColor=none;top=0;left=0;bottom=0;right=0;align=left;spacingLeft=6;" vertex="1" parent="1">
          <mxGeometry x="50" y="170" width="290" height="30" as="geometry" />
        </mxCell>
        <mxCell id="B6y-D5gSoSHr-RNbPVT_-165" value="" style="shape=table;startSize=30;container=1;collapsible=1;childLayout=tableLayout;fixedRows=1;rowLines=0;fontStyle=1;align=center;resizeLast=1;" vertex="1" parent="1">
          <mxGeometry x="1320" y="10" width="290" height="240" as="geometry" />
        </mxCell>
        <mxCell id="B6y-D5gSoSHr-RNbPVT_-166" value="" style="shape=partialRectangle;collapsible=0;dropTarget=0;pointerEvents=0;fillColor=none;points=[[0,0.5],[1,0.5]];portConstraint=eastwest;top=0;left=0;right=0;bottom=1;" vertex="1" parent="B6y-D5gSoSHr-RNbPVT_-165">
          <mxGeometry y="30" width="290" height="30" as="geometry" />
        </mxCell>
        <mxCell id="B6y-D5gSoSHr-RNbPVT_-167" value="PK" style="shape=partialRectangle;overflow=hidden;connectable=0;fillColor=none;top=0;left=0;bottom=0;right=0;fontStyle=1;" vertex="1" parent="B6y-D5gSoSHr-RNbPVT_-166">
          <mxGeometry width="30.000000000000227" height="30" as="geometry" />
        </mxCell>
        <mxCell id="B6y-D5gSoSHr-RNbPVT_-168" value="" style="shape=partialRectangle;overflow=hidden;connectable=0;fillColor=none;top=0;left=0;bottom=0;right=0;align=left;spacingLeft=6;fontStyle=5;" vertex="1" parent="B6y-D5gSoSHr-RNbPVT_-166">
          <mxGeometry x="30.000000000000227" width="259.9999999999998" height="30" as="geometry" />
        </mxCell>
        <mxCell id="B6y-D5gSoSHr-RNbPVT_-169" value="" style="shape=partialRectangle;collapsible=0;dropTarget=0;pointerEvents=0;fillColor=none;points=[[0,0.5],[1,0.5]];portConstraint=eastwest;top=0;left=0;right=0;bottom=0;" vertex="1" parent="B6y-D5gSoSHr-RNbPVT_-165">
          <mxGeometry y="60" width="290" height="30" as="geometry" />
        </mxCell>
        <mxCell id="B6y-D5gSoSHr-RNbPVT_-170" value="FK" style="shape=partialRectangle;overflow=hidden;connectable=0;fillColor=none;top=0;left=0;bottom=0;right=0;" vertex="1" parent="B6y-D5gSoSHr-RNbPVT_-169">
          <mxGeometry width="30.000000000000227" height="30" as="geometry" />
        </mxCell>
        <mxCell id="B6y-D5gSoSHr-RNbPVT_-171" value="" style="shape=partialRectangle;overflow=hidden;connectable=0;fillColor=none;top=0;left=0;bottom=0;right=0;align=left;spacingLeft=6;" vertex="1" parent="B6y-D5gSoSHr-RNbPVT_-169">
          <mxGeometry x="30.000000000000227" width="259.9999999999998" height="30" as="geometry" />
        </mxCell>
        <mxCell id="B6y-D5gSoSHr-RNbPVT_-179" value="FK" style="shape=partialRectangle;overflow=hidden;connectable=0;fillColor=none;top=0;left=0;bottom=0;right=0;" vertex="1" parent="1">
          <mxGeometry x="770" y="720" width="30.000000000000227" height="30" as="geometry" />
        </mxCell>
        <mxCell id="B6y-D5gSoSHr-RNbPVT_-180" value="projectId uuid" style="shape=partialRectangle;overflow=hidden;connectable=0;fillColor=none;top=0;left=0;bottom=0;right=0;align=left;spacingLeft=6;" vertex="1" parent="1">
          <mxGeometry x="800.0000000000002" y="720" width="259.9999999999998" height="30" as="geometry" />
        </mxCell>
        <mxCell id="B6y-D5gSoSHr-RNbPVT_-181" value="FK" style="shape=partialRectangle;overflow=hidden;connectable=0;fillColor=none;top=0;left=0;bottom=0;right=0;" vertex="1" parent="1">
          <mxGeometry x="770" y="740" width="30.000000000000227" height="30" as="geometry" />
        </mxCell>
        <mxCell id="B6y-D5gSoSHr-RNbPVT_-182" value="ticketId uuid" style="shape=partialRectangle;overflow=hidden;connectable=0;fillColor=none;top=0;left=0;bottom=0;right=0;align=left;spacingLeft=6;" vertex="1" parent="1">
          <mxGeometry x="800.0000000000002" y="740" width="259.9999999999998" height="30" as="geometry" />
        </mxCell>
        <mxCell id="B6y-D5gSoSHr-RNbPVT_-183" value="FK" style="shape=partialRectangle;overflow=hidden;connectable=0;fillColor=none;top=0;left=0;bottom=0;right=0;" vertex="1" parent="1">
          <mxGeometry x="770" y="760" width="30.000000000000227" height="30" as="geometry" />
        </mxCell>
        <mxCell id="B6y-D5gSoSHr-RNbPVT_-184" value="columnId uuid" style="shape=partialRectangle;overflow=hidden;connectable=0;fillColor=none;top=0;left=0;bottom=0;right=0;align=left;spacingLeft=6;" vertex="1" parent="1">
          <mxGeometry x="800.0000000000002" y="760" width="259.9999999999998" height="30" as="geometry" />
        </mxCell>
        <mxCell id="B6y-D5gSoSHr-RNbPVT_-187" value="FK" style="shape=partialRectangle;overflow=hidden;connectable=0;fillColor=none;top=0;left=0;bottom=0;right=0;" vertex="1" parent="1">
          <mxGeometry x="770" y="780" width="30.000000000000227" height="30" as="geometry" />
        </mxCell>
        <mxCell id="B6y-D5gSoSHr-RNbPVT_-188" value="labelId uuid" style="shape=partialRectangle;overflow=hidden;connectable=0;fillColor=none;top=0;left=0;bottom=0;right=0;align=left;spacingLeft=6;" vertex="1" parent="1">
          <mxGeometry x="800.0000000000002" y="780" width="259.9999999999998" height="30" as="geometry" />
        </mxCell>
        <mxCell id="B6y-D5gSoSHr-RNbPVT_-189" value="actionType int NOT NULL" style="shape=partialRectangle;overflow=hidden;connectable=0;fillColor=none;top=0;left=0;bottom=0;right=0;align=left;spacingLeft=6;" vertex="1" parent="1">
          <mxGeometry x="800.0000000000002" y="820" width="259.9999999999998" height="30" as="geometry" />
        </mxCell>
        <mxCell id="B6y-D5gSoSHr-RNbPVT_-190" value="createdTime Date NOT NULL" style="shape=partialRectangle;overflow=hidden;connectable=0;fillColor=none;top=0;left=0;bottom=0;right=0;align=left;spacingLeft=6;" vertex="1" parent="1">
          <mxGeometry x="800.0000000000002" y="840" width="259.9999999999998" height="30" as="geometry" />
        </mxCell>
        <mxCell id="B6y-D5gSoSHr-RNbPVT_-192" value="createdTime Date NOT NULL" style="shape=partialRectangle;overflow=hidden;connectable=0;fillColor=none;top=0;left=0;bottom=0;right=0;align=left;spacingLeft=6;" vertex="1" parent="1">
          <mxGeometry x="455.0000000000002" y="480" width="259.9999999999998" height="30" as="geometry" />
        </mxCell>
        <mxCell id="B6y-D5gSoSHr-RNbPVT_-193" value="modifiedTime Date NOT NULL" style="shape=partialRectangle;overflow=hidden;connectable=0;fillColor=none;top=0;left=0;bottom=0;right=0;align=left;spacingLeft=6;" vertex="1" parent="1">
          <mxGeometry x="455.0000000000002" y="500" width="259.9999999999998" height="30" as="geometry" />
        </mxCell>
        <mxCell id="B6y-D5gSoSHr-RNbPVT_-121" value="Activities" style="shape=table;startSize=30;container=1;collapsible=1;childLayout=tableLayout;fixedRows=1;rowLines=0;fontStyle=1;align=center;resizeLast=1;" vertex="1" parent="1">
          <mxGeometry x="770" y="640" width="290" height="240" as="geometry" />
        </mxCell>
        <mxCell id="B6y-D5gSoSHr-RNbPVT_-122" value="" style="shape=partialRectangle;collapsible=0;dropTarget=0;pointerEvents=0;fillColor=none;points=[[0,0.5],[1,0.5]];portConstraint=eastwest;top=0;left=0;right=0;bottom=1;" vertex="1" parent="B6y-D5gSoSHr-RNbPVT_-121">
          <mxGeometry y="30" width="290" height="30" as="geometry" />
        </mxCell>
        <mxCell id="B6y-D5gSoSHr-RNbPVT_-123" value="PK" style="shape=partialRectangle;overflow=hidden;connectable=0;fillColor=none;top=0;left=0;bottom=0;right=0;fontStyle=1;" vertex="1" parent="B6y-D5gSoSHr-RNbPVT_-122">
          <mxGeometry width="30.000000000000227" height="30" as="geometry" />
        </mxCell>
        <mxCell id="B6y-D5gSoSHr-RNbPVT_-124" value="activityId uuid NOT NULL" style="shape=partialRectangle;overflow=hidden;connectable=0;fillColor=none;top=0;left=0;bottom=0;right=0;align=left;spacingLeft=6;fontStyle=5;" vertex="1" parent="B6y-D5gSoSHr-RNbPVT_-122">
          <mxGeometry x="30.000000000000227" width="259.9999999999998" height="30" as="geometry" />
        </mxCell>
        <mxCell id="B6y-D5gSoSHr-RNbPVT_-125" value="" style="shape=partialRectangle;collapsible=0;dropTarget=0;pointerEvents=0;fillColor=none;points=[[0,0.5],[1,0.5]];portConstraint=eastwest;top=0;left=0;right=0;bottom=0;" vertex="1" parent="B6y-D5gSoSHr-RNbPVT_-121">
          <mxGeometry y="60" width="290" height="30" as="geometry" />
        </mxCell>
        <mxCell id="B6y-D5gSoSHr-RNbPVT_-126" value="FK" style="shape=partialRectangle;overflow=hidden;connectable=0;fillColor=none;top=0;left=0;bottom=0;right=0;" vertex="1" parent="B6y-D5gSoSHr-RNbPVT_-125">
          <mxGeometry width="30.000000000000227" height="30" as="geometry" />
        </mxCell>
        <mxCell id="B6y-D5gSoSHr-RNbPVT_-127" value="userId uuid NOT NULL" style="shape=partialRectangle;overflow=hidden;connectable=0;fillColor=none;top=0;left=0;bottom=0;right=0;align=left;spacingLeft=6;" vertex="1" parent="B6y-D5gSoSHr-RNbPVT_-125">
          <mxGeometry x="30.000000000000227" width="259.9999999999998" height="30" as="geometry" />
        </mxCell>
        <mxCell id="B6y-D5gSoSHr-RNbPVT_-112" value="Ticket-Label" style="shape=table;startSize=30;container=1;collapsible=1;childLayout=tableLayout;fixedRows=1;rowLines=0;fontStyle=1;align=center;resizeLast=1;" vertex="1" parent="1">
          <mxGeometry x="50" y="645" width="290" height="180" as="geometry" />
        </mxCell>
        <mxCell id="B6y-D5gSoSHr-RNbPVT_-113" value="" style="shape=partialRectangle;collapsible=0;dropTarget=0;pointerEvents=0;fillColor=none;points=[[0,0.5],[1,0.5]];portConstraint=eastwest;top=0;left=0;right=0;bottom=1;" vertex="1" parent="B6y-D5gSoSHr-RNbPVT_-112">
          <mxGeometry y="30" width="290" height="30" as="geometry" />
        </mxCell>
        <mxCell id="B6y-D5gSoSHr-RNbPVT_-114" value="PK" style="shape=partialRectangle;overflow=hidden;connectable=0;fillColor=none;top=0;left=0;bottom=0;right=0;fontStyle=1;" vertex="1" parent="B6y-D5gSoSHr-RNbPVT_-113">
          <mxGeometry width="30.000000000000227" height="30" as="geometry" />
        </mxCell>
        <mxCell id="B6y-D5gSoSHr-RNbPVT_-115" value="ticketLabelId uuid NOT NULL" style="shape=partialRectangle;overflow=hidden;connectable=0;fillColor=none;top=0;left=0;bottom=0;right=0;align=left;spacingLeft=6;fontStyle=5;" vertex="1" parent="B6y-D5gSoSHr-RNbPVT_-113">
          <mxGeometry x="30.000000000000227" width="259.9999999999998" height="30" as="geometry" />
        </mxCell>
        <mxCell id="B6y-D5gSoSHr-RNbPVT_-116" value="" style="shape=partialRectangle;collapsible=0;dropTarget=0;pointerEvents=0;fillColor=none;points=[[0,0.5],[1,0.5]];portConstraint=eastwest;top=0;left=0;right=0;bottom=0;" vertex="1" parent="B6y-D5gSoSHr-RNbPVT_-112">
          <mxGeometry y="60" width="290" height="30" as="geometry" />
        </mxCell>
        <mxCell id="B6y-D5gSoSHr-RNbPVT_-117" value="FK" style="shape=partialRectangle;overflow=hidden;connectable=0;fillColor=none;top=0;left=0;bottom=0;right=0;" vertex="1" parent="B6y-D5gSoSHr-RNbPVT_-116">
          <mxGeometry width="30.000000000000227" height="30" as="geometry" />
        </mxCell>
        <mxCell id="B6y-D5gSoSHr-RNbPVT_-118" value="ticketId uuid NOT NULL" style="shape=partialRectangle;overflow=hidden;connectable=0;fillColor=none;top=0;left=0;bottom=0;right=0;align=left;spacingLeft=6;" vertex="1" parent="B6y-D5gSoSHr-RNbPVT_-116">
          <mxGeometry x="30.000000000000227" width="259.9999999999998" height="30" as="geometry" />
        </mxCell>
        <mxCell id="B6y-D5gSoSHr-RNbPVT_-194" value="FK" style="shape=partialRectangle;overflow=hidden;connectable=0;fillColor=none;top=0;left=0;bottom=0;right=0;" vertex="1" parent="1">
          <mxGeometry x="770" y="800" width="30.000000000000227" height="30" as="geometry" />
        </mxCell>
        <mxCell id="B6y-D5gSoSHr-RNbPVT_-195" value="commentId uuid" style="shape=partialRectangle;overflow=hidden;connectable=0;fillColor=none;top=0;left=0;bottom=0;right=0;align=left;spacingLeft=6;" vertex="1" parent="1">
          <mxGeometry x="800.0000000000002" y="800" width="259.9999999999998" height="30" as="geometry" />
        </mxCell>
        <mxCell id="B6y-D5gSoSHr-RNbPVT_-151" value="Comments" style="shape=table;startSize=30;container=1;collapsible=1;childLayout=tableLayout;fixedRows=1;rowLines=0;fontStyle=1;align=center;resizeLast=1;" vertex="1" parent="1">
          <mxGeometry x="425" y="640" width="290" height="240" as="geometry" />
        </mxCell>
        <mxCell id="B6y-D5gSoSHr-RNbPVT_-152" value="" style="shape=partialRectangle;collapsible=0;dropTarget=0;pointerEvents=0;fillColor=none;points=[[0,0.5],[1,0.5]];portConstraint=eastwest;top=0;left=0;right=0;bottom=1;" vertex="1" parent="B6y-D5gSoSHr-RNbPVT_-151">
          <mxGeometry y="30" width="290" height="30" as="geometry" />
        </mxCell>
        <mxCell id="B6y-D5gSoSHr-RNbPVT_-153" value="PK" style="shape=partialRectangle;overflow=hidden;connectable=0;fillColor=none;top=0;left=0;bottom=0;right=0;fontStyle=1;" vertex="1" parent="B6y-D5gSoSHr-RNbPVT_-152">
          <mxGeometry width="30.000000000000227" height="30" as="geometry" />
        </mxCell>
        <mxCell id="B6y-D5gSoSHr-RNbPVT_-154" value="commentId uuid NOT NULL" style="shape=partialRectangle;overflow=hidden;connectable=0;fillColor=none;top=0;left=0;bottom=0;right=0;align=left;spacingLeft=6;fontStyle=5;" vertex="1" parent="B6y-D5gSoSHr-RNbPVT_-152">
          <mxGeometry x="30.000000000000227" width="259.9999999999998" height="30" as="geometry" />
        </mxCell>
        <mxCell id="B6y-D5gSoSHr-RNbPVT_-155" value="" style="shape=partialRectangle;collapsible=0;dropTarget=0;pointerEvents=0;fillColor=none;points=[[0,0.5],[1,0.5]];portConstraint=eastwest;top=0;left=0;right=0;bottom=0;" vertex="1" parent="B6y-D5gSoSHr-RNbPVT_-151">
          <mxGeometry y="60" width="290" height="30" as="geometry" />
        </mxCell>
        <mxCell id="B6y-D5gSoSHr-RNbPVT_-156" value="FK" style="shape=partialRectangle;overflow=hidden;connectable=0;fillColor=none;top=0;left=0;bottom=0;right=0;" vertex="1" parent="B6y-D5gSoSHr-RNbPVT_-155">
          <mxGeometry width="30.000000000000227" height="30" as="geometry" />
        </mxCell>
        <mxCell id="B6y-D5gSoSHr-RNbPVT_-157" value="ticketId uuid NOT NULL" style="shape=partialRectangle;overflow=hidden;connectable=0;fillColor=none;top=0;left=0;bottom=0;right=0;align=left;spacingLeft=6;" vertex="1" parent="B6y-D5gSoSHr-RNbPVT_-155">
          <mxGeometry x="30.000000000000227" width="259.9999999999998" height="30" as="geometry" />
        </mxCell>
        <mxCell id="B6y-D5gSoSHr-RNbPVT_-196" value="FK" style="shape=partialRectangle;overflow=hidden;connectable=0;fillColor=none;top=0;left=0;bottom=0;right=0;" vertex="1" parent="1">
          <mxGeometry x="425" y="720" width="30.000000000000227" height="30" as="geometry" />
        </mxCell>
        <mxCell id="B6y-D5gSoSHr-RNbPVT_-197" value="ticketId uuid NOT NULL" style="shape=partialRectangle;overflow=hidden;connectable=0;fillColor=none;top=0;left=0;bottom=0;right=0;align=left;spacingLeft=6;" vertex="1" parent="1">
          <mxGeometry x="455.0000000000002" y="720" width="259.9999999999998" height="30" as="geometry" />
        </mxCell>
      </root>
    </mxGraphModel>
  </diagram>
</mxfile>
